<svg width="320" height="320" viewBox="0 0 320 320" fill="none" xmlns="http://www.w3.org/2000/svg">
<g clip-path="url(#clip0_185_12)">
<path d="M147.666 0.804688L164.91 0.857137C168.812 0.857137 175.699 2.45685 175.673 10.8357C175.647 19.2145 168.746 20.7617 164.858 20.7486L155.208 20.7224L155.168 34.4248L147.561 34.3986L147.666 0.804688ZM163.587 14.7956C166.154 14.7956 168.196 14.0482 168.209 10.8094C168.209 7.57068 166.18 6.81016 163.614 6.79705L155.247 6.77082L155.221 14.7694L163.587 14.7956Z" fill="black"/>
<path d="M181.603 1.69531L197.237 5.19632C202.985 6.48133 207.83 10.3101 206.494 16.3025C205.276 21.7441 201.519 22.898 199.672 22.8194C202.553 24.3404 204.242 26.3335 203.378 30.241L202.239 35.3548C201.859 37.0725 201.78 38.9083 202.985 40.9407L195.103 39.1705C194.212 37.7019 194.553 35.7351 194.802 34.6205L195.823 30.0705C196.386 27.566 195.705 25.3632 193.204 24.7993L184.432 22.8325L181.459 36.1153L174.271 34.5025L181.603 1.69531ZM193.479 18.7414C196.176 19.3446 198.442 18.5841 199.096 15.6076C199.672 13.0506 197.983 11.4509 195.286 10.8478L187.495 9.10381L185.728 16.9975L193.479 18.7283V18.7414Z" fill="black"/>
<path d="M218.736 11.5965L241.139 22.506L238.533 27.8559L222.978 20.2769L219.718 26.9905L234.671 34.281L232.065 39.6308L217.112 32.3403L213.499 39.7882L229.355 47.5114L226.749 52.8612L204.058 41.7944L218.736 11.5703V11.5965Z" fill="black"/>
<path d="M249.467 27.9609L269.055 43.4598L265.375 48.1278L251.758 37.3494L247.136 43.2106L259.929 53.3334L256.249 58.0014L243.457 47.8787L234.645 59.0504L228.674 54.3299L249.48 27.9609H249.467Z" fill="black"/>
<path d="M273.807 48.3128L289.86 67.3913L285.316 71.2201L274.161 57.9635L268.452 62.7757L279.176 75.5079L274.632 79.3367L263.909 66.5914L257.584 71.9282L268.95 85.4339L264.406 89.2627L248.144 69.9351L273.807 48.2734V48.3128Z" fill="black"/>
<path d="M295.61 76.0156L302.837 90.3343C305.495 95.6055 305.626 101.768 300.153 104.535C295.191 107.053 291.904 104.876 290.791 103.407C291.446 106.594 290.988 109.177 287.426 110.973L282.765 113.333C281.194 114.133 279.74 115.235 278.942 117.464L275.302 110.239C275.865 108.613 277.606 107.63 278.627 107.118L282.778 105.02C285.069 103.866 286.339 101.939 285.174 99.6441L281.128 91.6194L269.004 97.756L265.678 91.1735L295.623 76.0156H295.61ZM289.993 96.0251C291.236 98.4903 293.266 99.7621 295.976 98.3853C298.307 97.2052 298.464 94.8843 297.22 92.4192L293.619 85.2861L286.405 88.9313L289.979 96.0251H289.993Z" fill="black"/>
<path d="M314.621 123.589L316.336 131.981L286.169 151.99L284.598 144.293L292.768 139.179L290.123 126.172L280.604 124.717L279.033 117.02L314.621 123.602V123.589ZM297.94 135.98L308.912 129.122L296.133 127.116L297.94 135.98Z" fill="black"/>
<path d="M319.204 154.009L318.353 170.885C317.973 178.438 313.482 181.65 308.637 181.401C305.076 181.217 302.444 177.887 302.195 175.16C301.724 179.801 297.796 182.227 294.326 182.057C287.059 181.69 284.532 175.409 284.938 167.135L285.684 152.305L319.204 154.009V154.009ZM290.843 168.013C290.673 171.291 291.472 174.294 294.85 174.465C298.032 174.622 299.014 172.104 299.145 169.482L299.59 160.644L291.236 160.225L290.843 168.026V168.013ZM305.141 168.59C304.984 171.685 306.359 173.612 308.598 173.717C311.02 173.835 312.343 172.236 312.474 169.534L312.893 161.313L305.534 160.933L305.141 168.59V168.59Z" fill="black"/>
<path d="M315.708 192.427L313.639 199.757L287.072 192.217L282.529 208.293L276.807 206.667L283.432 183.262L315.721 192.427H315.708Z" fill="black"/>
<path d="M305.728 223.769L294.023 245.785L288.772 242.992L296.903 227.69L290.317 224.176L282.5 238.888L277.25 236.095L285.067 221.383L277.761 217.488L269.472 233.079L264.222 230.286L276.085 207.969L305.702 223.769H305.728Z" fill="black"/>
<path d="M275.929 268.783L257.585 285.724L253.552 281.345L266.305 269.57L261.251 264.076L249.257 275.143L245.224 270.763L257.218 259.696L247.581 249.233L253.172 244.066L275.916 268.783H275.929Z" fill="black"/>
<path d="M251.849 290.102L245.25 293.891L234.71 275.521C232.196 271.141 228.36 270.774 224.903 272.767C221.446 274.76 219.836 278.261 222.35 282.641L232.89 301.011L226.291 304.814L215.751 286.443C211.207 278.523 214.9 271.666 221.944 267.614C228.988 263.562 236.766 263.811 241.309 271.731L251.849 290.102Z" fill="black"/>
<path d="M209.544 304.395L219.43 301.288L221.211 306.965L194.186 315.449L192.405 309.771L202.291 306.664L194.029 280.282L201.282 278L209.544 304.382V304.395Z" fill="black"/>
<path d="M188.557 316.63L180.976 317.299L179.129 296.201C178.684 291.179 175.372 289.225 171.391 289.566C167.411 289.92 164.478 292.425 164.923 297.447L166.769 318.545L159.188 319.213L157.342 298.116C156.543 289.016 162.763 284.348 170.867 283.64C178.959 282.931 185.899 286.419 186.698 295.532L188.544 316.63H188.557Z" fill="black"/>
<path d="M148.921 318.714L133.091 316.249C127.265 315.344 122.185 311.843 123.127 305.785C123.978 300.278 127.671 298.875 129.504 298.836C126.532 297.511 124.712 295.636 125.327 291.676L126.139 286.497C126.414 284.753 126.361 282.917 125.026 280.977L133.013 282.222C133.995 283.625 133.785 285.618 133.602 286.746L132.882 291.362C132.489 293.905 133.301 296.056 135.841 296.449L144.718 297.839L146.813 284.386L154.093 285.527L148.921 318.74V318.714ZM135.959 302.481C133.235 302.061 131.023 302.966 130.551 305.969C130.145 308.552 131.939 310.034 134.663 310.466L142.558 311.699L143.802 303.7L135.959 302.481V302.481Z" fill="black"/>
<path d="M111.214 311.266L88.1565 301.838L90.4086 296.331L106.422 302.887L109.25 295.977L93.8522 289.683L96.1043 284.175L111.502 290.469L114.632 282.799L98.3171 276.124L100.569 270.617L123.928 280.176L111.24 311.279L111.214 311.266Z" fill="black"/>
<path d="M78.1377 276.794C72.2718 283.297 62.3076 286.339 53.1945 278.105C44.1993 269.975 46.2026 259.721 52.0554 253.217C57.9475 246.674 67.7676 243.816 76.7628 251.946C85.8628 260.18 84.0297 270.25 78.1377 276.78V276.794ZM57.7118 258.331C53.823 262.645 52.1078 269.097 57.188 273.699C62.3731 278.393 68.6187 276.007 72.4944 271.706C76.3831 267.392 77.9805 261.072 72.7824 256.391C67.7021 251.801 61.5875 254.03 57.6987 258.344L57.7118 258.331Z" fill="black"/>
<path d="M35.9118 259.172L21.7446 238.598L26.6416 235.215L36.4879 249.521L42.6288 245.272L33.3717 231.832L38.2686 228.449L47.5258 241.889L59.2313 233.812L63.5522 240.08L35.9249 259.158L35.9118 259.172Z" fill="black"/>
<path d="M16.3755 211.417L19.6227 221.265L13.9794 223.127L5.08887 196.194L10.7322 194.332L13.9794 204.179L40.1926 195.499L42.5756 202.724L16.3624 211.404L16.3755 211.417Z" fill="black"/>
<path d="M3.7409 190.121L2.99457 182.542L16.3369 181.218L14.8966 166.676L1.56738 168L0.821045 160.422L34.2095 157.117L34.9558 164.696L20.8148 166.099L22.2551 180.641L36.3961 179.238L37.1424 186.817L3.75399 190.121H3.7409Z" fill="black"/>
<path d="M1.4104 148.609L4.97184 123.918L10.8508 124.77L8.37615 141.921L15.7609 142.996L18.1439 126.501L24.0229 127.353L21.6399 143.849L29.8233 145.029L32.3504 127.55L38.2294 128.402L34.6155 153.421L1.4104 148.609Z" fill="black"/>
<path d="M31.9177 102.518L9.34448 107.226L13.1285 99.2794L28.5396 96.7881L20.7751 83.2561L24.4806 75.4805L35.0994 95.8571L48.8214 102.413L45.6528 109.074L31.9308 102.505L31.9177 102.518Z" fill="black"/>
<path d="M26.4976 73.2768L41.542 53.3984L46.2819 56.9912L35.8332 70.7986L41.7777 75.3092L51.8204 62.0264L56.5603 65.6192L46.5175 78.902L53.1167 83.8978L63.7617 69.8151L68.5015 73.4079L53.2607 93.5617L26.5106 73.2637L26.4976 73.2768Z" fill="black"/>
<path d="M57.8434 38.1897L64.5211 32.8398L96.0372 50.6202L89.9094 55.5243L81.6343 50.5678L71.2774 58.8548L74.3151 67.9941L68.1873 72.8982L57.8303 38.1897H57.8434ZM76.4493 47.4208L65.3591 40.7597L69.3919 53.0591L76.4493 47.4208V47.4208Z" fill="black"/>
<path d="M83.0344 20.1593L97.6599 13.6162C103.041 11.2036 109.208 11.374 111.709 16.973C113.974 22.0606 111.657 25.2338 110.138 26.2828C113.346 25.7845 115.899 26.3615 117.536 30.0067L119.67 34.7927C120.39 36.4056 121.425 37.9135 123.598 38.8182L116.213 42.1226C114.629 41.4801 113.726 39.6968 113.254 38.6478L111.356 34.3863C110.308 32.0391 108.449 30.6754 106.105 31.7244L97.9087 35.3959L103.46 47.8264L96.7302 50.8423L83.0344 20.1593V20.1593ZM102.727 26.7286C105.241 25.601 106.603 23.6341 105.359 20.8543C104.285 18.4678 101.981 18.1925 99.4668 19.3201L92.1737 22.5851L95.4733 29.9674L102.727 26.7286Z" fill="black"/>
<path d="M122.931 32.1812L130.198 30.293L132.084 37.5703L124.817 39.4585L122.931 32.1812Z" fill="black"/>
</g>
<defs>
<clipPath id="clip0_185_12">
<rect width="318.395" height="318.395" fill="white" transform="translate(0.808105 0.804688)"/>
</clipPath>
</defs>
</svg>
