<svg width="1000" height="1000" viewBox="0 0 1000 1000" fill="none" xmlns="http://www.w3.org/2000/svg">
<rect width="1000" height="1000" fill="#181818"/>
<circle cx="500" cy="500" r="500" fill="#181818"/>
<path d="M624.133 500.516C624.133 580.855 589.698 632.566 555.52 648.041C531.402 659.131 487.939 659.131 456.341 659.131H401.398V341.772H462.015C511.798 341.772 532.434 341.772 552.941 350.799C595.501 369.626 624.133 429.848 624.133 500.516ZM575.253 297.024C545.073 285.161 508.316 284.645 465.884 284.129L340.008 284V716H457.372C525.469 716 566.612 716 607.625 684.019C656.763 645.59 685.008 578.018 685.008 498.839C685.008 402.639 641.931 323.331 575.253 297.024Z" fill="#FAF9F6"/>
</svg>
